<svg id="cancel" xmlns="http://www.w3.org/2000/svg" width="16" height="16" viewBox="0 0 16 16">
  <path id="Path_41" data-name="Path 41" d="M-180.5-179.182h-.25a3.433,3.433,0,0,1-.461-.332q-3.329-3.317-6.648-6.645a.978.978,0,0,1-.1-.155h-.073a.933.933,0,0,1-.1.155q-3.321,3.325-6.648,6.646a3.425,3.425,0,0,1-.461.331h-.25a.74.74,0,0,1-.5-.5v-.25a3.427,3.427,0,0,1,.331-.461q3.318-3.329,6.645-6.648a.972.972,0,0,1,.155-.1v-.073a.974.974,0,0,1-.155-.1q-3.325-3.321-6.645-6.648a3.459,3.459,0,0,1-.331-.461v-.25a.7.7,0,0,1,.395-.454.66.66,0,0,1,.746.207q3.361,3.366,6.725,6.728c.043.043.088.084.148.142.054-.062.1-.116.143-.164l6.67-6.672a1.6,1.6,0,0,1,.185-.167.617.617,0,0,1,.925.239c.022.046.041.094.062.141v.25a3.424,3.424,0,0,1-.331.461q-3.317,3.329-6.645,6.648a1.427,1.427,0,0,1-.192.129c.1.076.149.11.192.153q3.325,3.322,6.645,6.649a3.458,3.458,0,0,1,.331.461v.25A.74.74,0,0,1-180.5-179.182Z" transform="translate(196 195.182)" fill="#111010"/>
</svg>
