<svg xmlns="http://www.w3.org/2000/svg" xmlns:xlink="http://www.w3.org/1999/xlink" width="24" height="24" viewBox="0 0 24 24">
  <defs>
    <clipPath id="clip-path">
      <rect id="Rectangle_3" data-name="Rectangle 3" width="24" height="24" transform="translate(124 432)" fill="#fff" stroke="#707070" stroke-width="1"/>
    </clipPath>
  </defs>
  <g id="Mask_Group_2" data-name="Mask Group 2" transform="translate(-124 -432)" clip-path="url(#clip-path)">
    <g id="india_1_" data-name="india (1)" transform="translate(103.909 411.954)">
      <path id="Path_29" data-name="Path 29" d="M20.1,29.371c0-1.7,0-3.406-.006-5.108,0-.169.033-.229.216-.225.57.013,1.14,0,1.71,0H43.787c.1,0,.2-.006.3-.009v5.343a.352.352,0,0,1-.24.075c-.078,0-.156,0-.234,0q-11.523,0-23.045,0C20.411,29.45,20.24,29.49,20.1,29.371Z" fill="#fe9711"/>
      <path id="Path_30" data-name="Path 30" d="M44.091,40.061c-.1,0-.2-.009-.3-.009q-11.7,0-23.408.006c-.246,0-.29-.07-.288-.3.011-1.679.007-3.359.007-5.038a.337.337,0,0,1,.238-.079c.078,0,.156,0,.234,0q11.523,0,23.045,0a.692.692,0,0,1,.475.075Q44.091,37.389,44.091,40.061Z" fill="#6da444"/>
      <path id="Path_31" data-name="Path 31" d="M44.091,34.718l-5.225,0H20.4c-.1,0-.2,0-.3.007q0-2.676,0-5.352c.062,0,.125.007.187.007H43.974l.117,0Q44.091,32.046,44.091,34.718Z" fill="#efefef"/>
      <path id="Path_32" data-name="Path 32" d="M32.1,34.1a2.058,2.058,0,1,1,2.051-2.061A2.069,2.069,0,0,1,32.1,34.1Z" fill="#0052b3"/>
      <path id="Path_33" data-name="Path 33" d="M32.255,30.8a1.006,1.006,0,0,1,.839.475C32.344,31.4,32.539,31.447,32.255,30.8Z" fill="#ecedee"/>
      <path id="Path_34" data-name="Path 34" d="M33.11,32.822a1.239,1.239,0,0,1-.84.5C32.5,32.629,32.389,32.7,33.11,32.822Z" fill="#ecedee"/>
      <path id="Path_35" data-name="Path 35" d="M31.066,31.274a1.256,1.256,0,0,1,.861-.5c0,.026,0,.034,0,.039C31.634,31.47,31.848,31.382,31.066,31.274Z" fill="#ecedee"/>
      <path id="Path_36" data-name="Path 36" d="M30.939,31.559c.045.058.074.094.1.13.291.393.277.485-.12.823A1.032,1.032,0,0,1,30.939,31.559Z" fill="#ecedee"/>
      <path id="Path_37" data-name="Path 37" d="M33.267,31.581a1.067,1.067,0,0,1,0,.93C32.85,32.165,32.849,31.942,33.267,31.581Z" fill="#ecedee"/>
      <path id="Path_38" data-name="Path 38" d="M31.067,32.818c.762-.1.578-.212.87.5A1.263,1.263,0,0,1,31.067,32.818Z" fill="#ecedee"/>
    </g>
  </g>
</svg>
