<svg xmlns="http://www.w3.org/2000/svg" xmlns:xlink="http://www.w3.org/1999/xlink" width="24" height="24" viewBox="0 0 24 24">
  <defs>
    <clipPath id="clip-path">
      <rect id="Rectangle_3" data-name="Rectangle 3" width="24" height="24" transform="translate(142 382)"/>
    </clipPath>
  </defs>
  <g id="Mask_Group_5" data-name="Mask Group 5" transform="translate(-142 -382)" clip-path="url(#clip-path)">
    <g id="pngkey.com-owner-icon-png-4304254" transform="translate(125.615 365.686)">
      <path id="Path_60" data-name="Path 60" d="M39.277,34.907a.81.81,0,0,0-.1.234c-.049.593-.08,1.188-.133,1.781-.067.756-.146,1.512-.225,2.267-.038.364-.09.726-.139,1.116h-8.3q.145-.741.289-1.478c.043-.222.09-.444.125-.667.084-.52.152-1.043.245-1.561.089-.5.2-.991.3-1.486.043-.213.084-.427.12-.641.12-.735.233-1.471.357-2.2.1-.607.215-1.211.328-1.816.025-.135.041-.221.246-.115.563.29,1.146.546,1.735.779.388.154.8.249,1.2.365.482.14.968.268,1.448.412a8.764,8.764,0,0,1,1.1.366,1.986,1.986,0,0,1,1.3,1.438c0,.021.055.033.085.048Q39.277,34.326,39.277,34.907Zm-7.689,2.911h3.357v-.64H31.588Z" fill="#111010"/>
      <path id="Path_61" data-name="Path 61" d="M23.713,21.623c-.015-.567-.024-1.111-.045-1.655a2.762,2.762,0,0,1,.856-2.112,2.751,2.751,0,0,1,1.957-1,3.866,3.866,0,0,0,.6-.074.2.2,0,0,0,.138-.093.55.55,0,0,1,.538-.363,5.333,5.333,0,0,1,1.755.182,6.224,6.224,0,0,1,1.763.731,5.168,5.168,0,0,1,1.071,1.073,2.452,2.452,0,0,1,.52,1.766c-.012.322.007.646-.013.967a3.97,3.97,0,0,1-.106.547c.136.056.255.095.366.152a.464.464,0,0,1,.315.455c-.056.533-.129,1.064-.2,1.595-.032.23-.093.455-.129.684-.051.337-.293.393-.562.371-.252-.021-.321.088-.408.314a6.992,6.992,0,0,1-.683,1.4,8.442,8.442,0,0,1-1.081,1.245,3.09,3.09,0,0,1-1.419.728,3,3,0,0,1-2.98-1.044,5.632,5.632,0,0,1-1.469-2.451c-.026-.085-.171-.144-.271-.194a.406.406,0,0,0-.191,0c-.442.037-.59-.133-.677-.618-.109-.608-.189-1.22-.291-1.829a.644.644,0,0,1,.363-.662C23.54,21.7,23.655,21.647,23.713,21.623Z" fill="#111010"/>
      <path id="Path_62" data-name="Path 62" d="M24.489,30.231c.124.746.231,1.453.36,2.155.125.685.276,1.366.408,2.05.056.294.085.593.139.887.1.525.2,1.049.3,1.574q.069.361.129.724c.12.726.234,1.452.357,2.177.028.165.079.326.126.515H18.039a1.708,1.708,0,0,1-.1-.328c-.049-.529-.08-1.059-.13-1.587-.06-.627-.155-1.252-.2-1.88-.062-.934-.108-1.869-.125-2.8a1.321,1.321,0,0,1,.492-.929,3.068,3.068,0,0,1,1.3-.7q.97-.285,1.936-.583c.495-.151.994-.292,1.479-.469.407-.148.8-.339,1.195-.516C24.085,30.435,24.271,30.337,24.489,30.231Z" fill="#111010"/>
      <path id="Path_63" data-name="Path 63" d="M26.7,40.306a8.9,8.9,0,0,1,.168-1.534,11.99,11.99,0,0,0,.241-1.545q.157-1.066.311-2.132c.042-.3.075-.6.11-.9a10.436,10.436,0,0,1,.132-1.113,2.265,2.265,0,0,0-.4-1.6c-.108-.208-.2-.423-.329-.693h2.848c-.209.407-.4.766-.578,1.129a1.527,1.527,0,0,0-.218.946c.115.718.213,1.438.315,2.158.041.288.081.577.111.867.048.463.072.93.137,1.391.054.38.153.753.232,1.13a.991.991,0,0,1,.021.108c.043.455.083.91.131,1.365.014.134.052.265.084.42Z" fill="#111010"/>
      <path id="Path_64" data-name="Path 64" d="M31.588,37.818v-.64h3.357v.64Z" fill="#b70000"/>
    </g>
  </g>
</svg>
