<svg xmlns="http://www.w3.org/2000/svg" width="15.242" height="11.093" viewBox="0 0 15.242 11.093">
  <path id="tick" d="M362.221,408.734,363.956,407q3.845-3.847,7.69-7.695a.621.621,0,0,1,.651-.194.521.521,0,0,1,.409.471,1.335,1.335,0,0,1-.121.481c-.02.058-.088.1-.136.148l-9.673,9.674a.636.636,0,0,1-1.07,0q-2-2-4-4a.645.645,0,0,1-.231-.573.58.58,0,0,1,.4-.486.567.567,0,0,1,.614.136c.339.331.672.667,1.006,1q1.3,1.3,2.594,2.6A1.845,1.845,0,0,1,362.221,408.734Z" transform="translate(-357.464 -399.084)" fill="#fff"/>
</svg>
