<svg xmlns="http://www.w3.org/2000/svg" xmlns:xlink="http://www.w3.org/1999/xlink" width="24" height="24" viewBox="0 0 24 24">
  <defs>
    <clipPath id="clip-path">
      <rect id="Rectangle_3" data-name="Rectangle 3" width="24" height="24" transform="translate(112 355)" fill="#fff" stroke="#707070" stroke-width="1"/>
    </clipPath>
  </defs>
  <g id="Mask_Group_1" data-name="Mask Group 1" transform="translate(-112 -355)" clip-path="url(#clip-path)">
    <g id="united-kingdom" transform="translate(112 358.99)">
      <path id="Path_16" data-name="Path 16" d="M27.264,20.035h2.972c.122.111.089.26.089.4q0,2.812,0,5.624c0,.412,0,.412.411.412q4.792,0,9.584,0a.61.61,0,0,1,.428.075v3a.611.611,0,0,1-.428.075q-4.745,0-9.49,0c-.556,0-.5-.043-.5.506q0,2.765,0,5.53c0,.136.034.285-.089.4H27.264c-.124-.111-.089-.26-.09-.4q0-2.812,0-5.624c0-.412,0-.412-.411-.412q-4.792,0-9.584,0c-.145,0-.3.032-.426-.081V26.551c.125-.112.28-.081.426-.081q4.722,0,9.443,0c.62,0,.55.061.551-.552,0-1.828,0-3.656,0-5.484C27.175,20.3,27.141,20.147,27.264,20.035Z" transform="translate(-16.749 -20.035)" fill="#d70027"/>
      <path id="Path_17" data-name="Path 17" d="M38.312,34.218c-.071.019-.117-.034-.169-.063q-4.5-2.5-9-5c-.053-.029-.1-.064-.207-.13.7,0,1.347.021,1.989-.007a2.175,2.175,0,0,1,1.213.314c2.051,1.157,4.115,2.292,6.175,3.434Z" transform="translate(-14.312 -18.239)" fill="#d70027"/>
      <path id="Path_18" data-name="Path 18" d="M38.3,21.523c-2.093,1.16-4.19,2.315-6.277,3.487a1.833,1.833,0,0,1-.994.254c-.67-.02-1.34-.006-2.014-.006-.007-.1.074-.1.12-.124q4.507-2.508,9.016-5.012c.046-.025.087-.07.149-.053Q38.3,20.8,38.3,21.523Z" transform="translate(-14.297 -20.029)" fill="#d70027"/>
      <path id="Path_19" data-name="Path 19" d="M37.66,32.109,32.2,29.076l.017-.049H37.4c.086,0,.171-.007.256-.011Q37.66,30.562,37.66,32.109Z" transform="translate(-13.66 -18.239)" fill="#0052b3"/>
      <path id="Path_20" data-name="Path 20" d="M37.438,24.8l-3.882-.011H33.31c-.017-.07.03-.078.06-.095l3.961-2.2a.635.635,0,0,1,.107-.037Q37.438,23.624,37.438,24.8Z" transform="translate(-13.438 -19.552)" fill="#0052b3"/>
      <path id="Path_21" data-name="Path 21" d="M37.077,20.039a1.546,1.546,0,0,1-.167.124Q33,22.338,29.086,24.51c-.039.022-.081.04-.118.059-.061-.052-.039-.11-.039-.159q0-2.083,0-4.167a1.9,1.9,0,0,1,.022-.208Z" transform="translate(-14.315 -20.035)" fill="#0052b3"/>
      <path id="Path_22" data-name="Path 22" d="M17.781,34.138a1.667,1.667,0,0,1,.169-.123q3.911-2.175,7.823-4.348c.039-.022.08-.041.118-.06.06.052.038.11.038.16q0,2.083,0,4.166a1.9,1.9,0,0,1-.022.208Z" transform="translate(-16.543 -18.121)" fill="#0052b3"/>
      <path id="Path_23" data-name="Path 23" d="M28.95,34.018a.272.272,0,0,1-.018-.068q0-1.86,0-3.715c.07-.04.11.011.153.035q3.259,1.808,6.518,3.619a.346.346,0,0,1,.163.126Z" transform="translate(-14.313 -17.998)" fill="#0052b3"/>
      <path id="Path_24" data-name="Path 24" d="M25.689,20.035a.272.272,0,0,1,.018.068q0,1.859,0,3.717c-.089.034-.138-.032-.194-.063q-3.217-1.785-6.432-3.573a.6.6,0,0,1-.208-.147Z" transform="translate(-16.325 -20.035)" fill="#0052b3"/>
      <path id="Path_25" data-name="Path 25" d="M16.75,20.069c.07-.018.118.032.17.061l9.041,5.022c.039.022.076.048.174.11a12.764,12.764,0,0,0-1.314.008,3.961,3.961,0,0,1-2.512-.646c-1.83-1.073-3.7-2.074-5.557-3.1Q16.751,20.794,16.75,20.069Z" transform="translate(-16.75 -20.029)" fill="#d70027"/>
      <path id="Path_26" data-name="Path 26" d="M16.753,32.769q3.281-1.821,6.56-3.644a.776.776,0,0,1,.4-.1c.777,0,1.554,0,2.341,0-.025.1-.1.111-.16.142q-4.465,2.483-8.931,4.962c-.066.037-.124.1-.21.087Q16.752,33.493,16.753,32.769Z" transform="translate(-16.749 -18.238)" fill="#d70027"/>
      <path id="Path_27" data-name="Path 27" d="M16.754,21.836l4.581,2.534a7.2,7.2,0,0,1,.86.534H16.757Q16.756,23.37,16.754,21.836Z" transform="translate(-16.749 -19.675)" fill="#0052b3"/>
      <path id="Path_28" data-name="Path 28" d="M16.757,29.026h4.126c.013.072-.034.079-.065.1q-1.969,1.1-3.939,2.188a.782.782,0,0,1-.128.045Q16.754,30.19,16.757,29.026Z" transform="translate(-16.749 -18.237)" fill="#0052b3"/>
    </g>
  </g>
</svg>
