<svg xmlns="http://www.w3.org/2000/svg" width="75.562" height="104.257" viewBox="0 0 75.562 104.257">
  <g id="final_logo" data-name="final logo" transform="translate(-151.524 -0.001)">
    <path id="Path_1" data-name="Path 1" d="M214.921,97.087c0,1.09,0,2.055,0,3.02a7.009,7.009,0,0,1-.031.729c-.3,2.762-1.558,3.7-4.309,3.353-5.543-.7-11.094-1.345-16.64-2.03-5.867-.725-11.73-1.475-17.6-2.2q-8.157-1.014-16.317-2.006c-1.822-.224-3.647-.422-5.464-.682a3.527,3.527,0,0,1-3.036-3.552q-.005-41.194,0-82.389a8.756,8.756,0,0,1,.109-1.451,3.15,3.15,0,0,1,3.144-3.01q13.538-1.7,27.077-3.4,13.1-1.634,26.2-3.239c.75-.092,1.5-.172,2.257-.213a3.643,3.643,0,0,1,4.1,2.9,28.753,28.753,0,0,1,.518,3.436c1.35-.125,2.738-.25,4.125-.384,1.773-.172,3.544-.386,5.32-.517a2.473,2.473,0,0,1,2.7,2.652q.008,10.907,0,21.814,0,32.112-.007,64.224a9.078,9.078,0,0,1-.176,1.927,2.953,2.953,0,0,1-3.094,2.548,29.536,29.536,0,0,1-4.152-.575C218.125,97.765,216.606,97.427,214.921,97.087ZM214.792,51.1q0,18.65,0,37.3a1.991,1.991,0,0,0,.02.722,1.066,1.066,0,0,0,.522.6,13.106,13.106,0,0,0,1.755.285c.562.076,1.124.146,1.688.206,1.637.173,2.169-.306,2.169-1.955q0-37.26,0-74.521c0-.189.009-.379,0-.568-.066-.885-.47-1.265-1.363-1.2-1.239.085-2.474.284-3.712.3-.912.011-1.1.357-1.093,1.206Q214.814,32.291,214.792,51.1Z" transform="translate(0 0)" fill="#b70000"/>
    <g id="Group_1" data-name="Group 1" transform="translate(165.308 66.699)">
      <path id="Path_2" data-name="Path 2" d="M290.964,655.028l.8,4.228h.008q.493-2.2.98-4.174a.071.071,0,0,1,.084-.063l.9.023q.082,0,.056.076l-1.519,5.3c-.006.038-.032.056-.075.055l-.92-.024a.09.09,0,0,1-.089-.06q-.546-2.7-.855-4.4h-.008q-.269,1.193-1.165,4.333a.08.08,0,0,1-.084.072l-.9-.023a.092.092,0,0,1-.088-.076l-1.225-5.365c-.015-.044,0-.066.051-.064l.969.025c.049,0,.079.018.089.052q.627,3.049.794,4.236h.008q.1-.482,1.062-4.172c.007-.044.035-.065.084-.063l.969.025A.065.065,0,0,1,290.964,655.028Z" transform="translate(-286.86 -654.865)" fill="#fff"/>
      <path id="Path_3" data-name="Path 3" d="M362.483,656.612a2.352,2.352,0,0,1,1.844.837,3.331,3.331,0,0,1-.111,4.086,2.684,2.684,0,0,1-3.749-.106,2.965,2.965,0,0,1-.636-2.075,2.881,2.881,0,0,1,.768-2.018A2.424,2.424,0,0,1,362.483,656.612Zm-1.576,2.77a2.543,2.543,0,0,0,.359,1.508,1.294,1.294,0,0,0,1.106.592,1.257,1.257,0,0,0,1.1-.51,2.581,2.581,0,0,0,.426-1.513,2.484,2.484,0,0,0-.363-1.505,1.368,1.368,0,0,0-2.18-.073A2.453,2.453,0,0,0,360.907,659.382Z" transform="translate(-352.397 -656.433)" fill="#fff"/>
      <path id="Path_4" data-name="Path 4" d="M420.914,663.854l-.9-.023a.058.058,0,0,1-.064-.067l.139-5.33c0-.049.021-.074.06-.073q.444,0,1.675.027a2.542,2.542,0,0,1,1.521.443,1.358,1.358,0,0,1,.516,1.18,1.46,1.46,0,0,1-1.147,1.425q.223.277.812,1.159t.826,1.258c.037.061.03.091-.019.09l-1.092-.029a.129.129,0,0,1-.114-.052q-.127-.184-.627-1.006t-.626-1.031a.287.287,0,0,0-.259-.163l-.583-.015-.056,2.144A.058.058,0,0,1,420.914,663.854Zm.143-2.979.673.017a1.189,1.189,0,0,0,.807-.213.825.825,0,0,0,.284-.646.771.771,0,0,0-.255-.639,1.235,1.235,0,0,0-.791-.243q-.575-.015-.674,0Z" transform="translate(-406.399 -658.005)" fill="#fff"/>
      <path id="Path_5" data-name="Path 5" d="M471.4,665.175l-.9-.023a.065.065,0,0,1-.072-.076l.139-5.338c0-.038.023-.057.067-.056l.912.024a.058.058,0,0,1,.064.067l-.058,2.242.222.006a.485.485,0,0,0,.156-.012.37.37,0,0,0,.118-.1q.246-.3.837-1.079t.778-1.015a.11.11,0,0,1,.1-.047l.977.025c.066,0,.079.032.039.091q-1.19,1.522-2.019,2.445c-.023.021-.023.049,0,.082q.638.757,2.147,2.768a.059.059,0,0,1,.011.062.045.045,0,0,1-.046.028l-1.076-.028a.164.164,0,0,1-.138-.069q-.255-.311-.882-1.153t-.81-1.077a.306.306,0,0,0-.252-.122l-.181,0-.06,2.291A.066.066,0,0,1,471.4,665.175Z" transform="translate(-451.733 -659.192)" fill="#fff"/>
      <path id="Path_6" data-name="Path 6" d="M525.29,665.855l-.14.654a.067.067,0,0,1-.075.064l-3.293-.086a.066.066,0,0,1-.072-.076l.139-5.33a.058.058,0,0,1,.068-.064l3.194.083a.076.076,0,0,1,.081.06l.073.659q.014.074-.059.072l-2.332-.061-.039,1.495,2.111.055c.038,0,.057.023.056.067l-.017.673c0,.038-.023.057-.067.056l-2.1-.055-.042,1.6,2.463.064C525.278,665.789,525.3,665.811,525.29,665.855Z" transform="translate(-497.79 -660.391)" fill="#fff"/>
      <path id="Path_7" data-name="Path 7" d="M566.851,667.653l-.9-.023a.058.058,0,0,1-.064-.067l.139-5.33c0-.049.021-.074.06-.073q.443,0,1.675.027a2.542,2.542,0,0,1,1.521.443,1.358,1.358,0,0,1,.516,1.18,1.46,1.46,0,0,1-1.146,1.425q.223.277.812,1.159t.826,1.258q.055.092-.019.09l-1.092-.029a.129.129,0,0,1-.114-.052q-.127-.184-.627-1.007l-.627-1.031a.287.287,0,0,0-.259-.163l-.583-.015-.056,2.144A.058.058,0,0,1,566.851,667.653Zm.143-2.979.673.017a1.189,1.189,0,0,0,.807-.213.825.825,0,0,0,.284-.646.771.771,0,0,0-.255-.639,1.235,1.235,0,0,0-.791-.243q-.575-.015-.674,0Z" transform="translate(-537.472 -661.417)" fill="#fff"/>
      <path id="Path_8" data-name="Path 8" d="M336.811,758.49l-.9-.023a.066.066,0,0,1-.072-.076l.139-5.338c0-.038.023-.057.067-.055l.911.024a.058.058,0,0,1,.064.067l-.058,2.242.222.006a.489.489,0,0,0,.157-.012.376.376,0,0,0,.118-.1q.246-.3.838-1.079t.778-1.015a.109.109,0,0,1,.1-.047l.977.025c.066,0,.079.032.039.091q-1.19,1.522-2.02,2.446c-.022.021-.023.049,0,.082q.638.756,2.147,2.768a.06.06,0,0,1,.011.062.045.045,0,0,1-.046.028l-1.076-.028a.164.164,0,0,1-.138-.069q-.255-.311-.882-1.153t-.81-1.077a.3.3,0,0,0-.252-.122l-.181,0-.06,2.292A.066.066,0,0,1,336.811,758.49Z" transform="translate(-330.855 -743.003)" fill="#fff"/>
      <path id="Path_9" data-name="Path 9" d="M391.456,759.913l-.912-.024a.058.058,0,0,1-.064-.067l.06-2.324-2.316-.06-.06,2.316a.065.065,0,0,1-.076.072l-.887-.023q-.082,0-.08-.076l.139-5.33c0-.044.026-.065.076-.064l.9.023c.049,0,.073.024.072.068l-.058,2.226,2.316.06.058-2.234c0-.038.023-.057.067-.056l.92.024a.051.051,0,0,1,.056.059l-.139,5.346A.058.058,0,0,1,391.456,759.913Z" transform="translate(-376.91 -744.202)" fill="#fff"/>
      <path id="Path_10" data-name="Path 10" d="M442.1,760.136l-1.905-.049-.514,1.425q-.01.066-.092.063l-.862-.023q-.082,0-.055-.083l1.835-4.834a1.394,1.394,0,0,0,.086-.458c0-.033.02-.049.058-.048l1.183.031a.074.074,0,0,1,.065.043l1.766,5.4c.015.05,0,.074-.051.073l-.969-.025a.084.084,0,0,1-.081-.06Zm-1.671-.84,1.478.038q-.03-.116-.314-1.056t-.373-1.288h-.008Q441.1,757.407,440.426,759.3Z" transform="translate(-423.201 -745.816)" fill="#fff"/>
      <path id="Path_11" data-name="Path 11" d="M487.638,762.343l.12-4.607-1.675-.043c-.044,0-.062-.026-.056-.075l.124-.646c.007-.044.035-.065.084-.063l4.172.108a.067.067,0,0,1,.072.068l.065.643q.006.082-.06.081l-1.684-.044-.12,4.6c0,.055-.024.082-.068.081l-.9-.023C487.663,762.423,487.636,762.4,487.638,762.343Z" transform="translate(-465.74 -746.514)" fill="#fff"/>
      <path id="Path_12" data-name="Path 12" d="M529.741,762.417l-1.905-.05-.514,1.425c-.007.044-.037.065-.092.063l-.862-.022c-.055,0-.073-.029-.055-.084l1.835-4.834a1.394,1.394,0,0,0,.086-.458c0-.033.02-.049.059-.048l1.183.031a.074.074,0,0,1,.065.043l1.766,5.4c.015.049,0,.074-.051.073l-.969-.025a.084.084,0,0,1-.081-.059Zm-1.671-.84,1.478.038q-.03-.116-.314-1.056t-.373-1.288h-.008Q528.743,759.687,528.07,761.576Z" transform="translate(-501.918 -747.863)" fill="#fff"/>
    </g>
    <g id="Group_2" data-name="Group 2" transform="translate(164.36 16.473)">
      <path id="Path_13" data-name="Path 13" d="M353.259,163.67c.009.154.023.275.023.4,0,.727,0,1.454,0,2.181a1.187,1.187,0,0,0,.09.468.59.59,0,0,0,.69.337.582.582,0,0,0,.509-.5,3.234,3.234,0,0,0,.044-.55c.009-.8-.015-1.593.023-2.388a2.058,2.058,0,0,1,4.107.06c.025.819.009,1.638.014,2.458a1.693,1.693,0,0,0,.026.413.615.615,0,0,0,.612.512.594.594,0,0,0,.641-.467,1.771,1.771,0,0,0,.058-.478c.006-.681,0-1.362,0-2.043,0-.122.015-.244.032-.49.758.382,1.476.67,2.116,1.079a10.479,10.479,0,0,1,4.934,7.712c.014.1.009.207.015.311.018.307.027.583.382.763a.727.727,0,0,1,.345.893.8.8,0,0,1-.807.581c-.058,0-.115,0-.173,0H346.558c-.092,0-.185,0-.277,0a.808.808,0,0,1-.394-1.533.491.491,0,0,0,.3-.484,10.55,10.55,0,0,1,6.773-9.141C353.041,163.73,353.127,163.709,353.259,163.67Z" transform="translate(-338.518 -161.725)" fill="#fff"/>
      <path id="Path_14" data-name="Path 14" d="M373.02,300.206c1.011,0,1.991.009,2.971-.006.287,0,.275.2.314.363a10.017,10.017,0,0,1-1.97,9.045c-.5.629-1.066,1.21-1.6,1.813l-.141-.08c.12.049.241.1.361.146a17.992,17.992,0,0,1,11.517,14.279,19.122,19.122,0,0,1,.206,2.722,1.492,1.492,0,0,1-2.754.818,1.94,1.94,0,0,1-.24-.882,15.185,15.185,0,0,0-15.086-15.1,10.183,10.183,0,0,1-9.9-12.8.354.354,0,0,1,.419-.326c.945.017,1.89.007,2.879.007a7.132,7.132,0,0,0-.03,5.828,7.03,7.03,0,0,0,2.851,3.252,7.137,7.137,0,0,0,8.055-.469A7.214,7.214,0,0,0,373.02,300.206Z" transform="translate(-348.321 -286.096)" fill="#fff"/>
      <path id="Path_15" data-name="Path 15" d="M291.418,418.126a14.8,14.8,0,0,0-5.665,3.139,14.988,14.988,0,0,0-5.194,11.35,1.514,1.514,0,0,1-1.158,1.526,1.476,1.476,0,0,1-1.7-.817,1.749,1.749,0,0,1-.151-.735c.263-7.486,3.759-12.921,10.4-16.351a.433.433,0,0,1,.365-.007c.5.331.965.713,1.474,1.027S290.842,417.823,291.418,418.126Z" transform="translate(-277.551 -390.276)" fill="#fff"/>
    </g>
  </g>
</svg>
