<svg xmlns="http://www.w3.org/2000/svg" xmlns:xlink="http://www.w3.org/1999/xlink" width="24" height="24" viewBox="0 0 24 24">
  <defs>
    <clipPath id="clip-path">
      <rect id="Rectangle_204" data-name="Rectangle 204" width="24" height="24" transform="translate(142 382)"/>
    </clipPath>
  </defs>
  <g id="Mask_Group_4" data-name="Mask Group 4" transform="translate(-142 -382)" clip-path="url(#clip-path)">
    <g id="Group_1727" data-name="Group 1727" transform="translate(-133.488 220.275)">
      <path id="Path_57" data-name="Path 57" d="M349.71,162.788c.005.084.012.15.013.216,0,.4,0,.795,0,1.192a.649.649,0,0,0,.049.256.323.323,0,0,0,.377.184.318.318,0,0,0,.278-.271,1.766,1.766,0,0,0,.024-.3c0-.435-.008-.871.013-1.305a1.125,1.125,0,0,1,2.245.033c.013.447,0,.9.007,1.343a.926.926,0,0,0,.014.226.336.336,0,0,0,.335.28.325.325,0,0,0,.35-.255.968.968,0,0,0,.032-.261c0-.372,0-.744,0-1.116,0-.067.008-.133.018-.268.414.209.807.366,1.157.59a5.728,5.728,0,0,1,2.7,4.215c.008.056.005.113.008.17.01.168.015.318.209.417a.4.4,0,0,1,.189.488.435.435,0,0,1-.441.317H346.047c-.05,0-.1,0-.151,0a.442.442,0,0,1-.215-.838.268.268,0,0,0,.163-.265,5.766,5.766,0,0,1,3.7-5C349.591,162.821,349.638,162.81,349.71,162.788Z" transform="translate(-64.101 0)" fill="#b70000"/>
      <path id="Path_58" data-name="Path 58" d="M365.46,300.2c.553,0,1.088.005,1.624,0,.157,0,.15.11.172.2a5.475,5.475,0,0,1-1.077,4.944c-.275.344-.583.661-.876.991l-.077-.044.2.08a9.834,9.834,0,0,1,6.3,7.8,10.448,10.448,0,0,1,.113,1.488.815.815,0,0,1-1.505.447,1.061,1.061,0,0,1-.131-.482,8.3,8.3,0,0,0-8.246-8.253,5.566,5.566,0,0,1-5.41-7,.194.194,0,0,1,.229-.178c.517.009,1.033,0,1.573,0a3.9,3.9,0,0,0-.017,3.186,3.843,3.843,0,0,0,1.558,1.778,3.9,3.9,0,0,0,4.4-.256A3.943,3.943,0,0,0,365.46,300.2Z" transform="translate(-74.409 -130.765)" fill="#111010"/>
      <path id="Path_59" data-name="Path 59" d="M285.131,417.25a8.09,8.09,0,0,0-3.1,1.716,8.193,8.193,0,0,0-2.839,6.2.828.828,0,0,1-.633.834.807.807,0,0,1-.928-.447.956.956,0,0,1-.083-.4,9.827,9.827,0,0,1,5.685-8.937.237.237,0,0,1,.2,0c.273.181.527.39.806.561S284.816,417.084,285.131,417.25Z" transform="translate(0 -240.302)" fill="#111010"/>
    </g>
  </g>
</svg>
